<?xml version="1.0" encoding="utf-8"?>
<!-- Generator: Adobe Illustrator 15.0.2, SVG Export Plug-In  -->
<!DOCTYPE svg PUBLIC "-//W3C//DTD SVG 1.1//EN" "http://www.w3.org/Graphics/SVG/1.1/DTD/svg11.dtd" [
	<!ENTITY ns_flows "http://ns.adobe.com/Flows/1.0/">
]>
<svg version="1.1"
	 xmlns="http://www.w3.org/2000/svg" xmlns:xlink="http://www.w3.org/1999/xlink" xmlns:a="http://ns.adobe.com/AdobeSVGViewerExtensions/3.0/"
	 x="0px" y="0px" width="220px" height="73px" viewBox="-0.83 -0.307 220 73"
	 overflow="visible" enable-background="new -0.83 -0.307 220 73" xml:space="preserve">
<defs>
</defs>
<path d="M16.642,30.713c0-0.322,0.024-0.78,0.074-1.375c0.049-0.594,0.123-1.275,0.223-2.043c0.099-0.767,0.21-1.578,0.334-2.433
	s0.247-1.702,0.372-2.545c0.271-1.98,0.606-4.11,1.003-6.389H18.09c-0.297,0.372-0.638,0.929-1.021,1.672s-0.923,1.833-1.616,3.269
	c-0.693,1.437-1.578,3.3-2.655,5.59c-1.077,2.291-2.471,5.157-4.179,8.6c-0.496,1.016-1.071,1.702-1.728,2.062
	s-1.381,0.538-2.173,0.538c-1.016,0-1.833-0.216-2.451-0.649c-0.619-0.434-1.096-1.016-1.431-1.746
	c-0.334-0.73-0.557-1.561-0.668-2.488C0.057,31.846,0,30.886,0,29.896c0-1.016,0.062-2.216,0.187-3.604
	c0.123-1.387,0.284-2.847,0.482-4.383c0.198-1.535,0.428-3.102,0.688-4.699c0.26-1.597,0.532-3.126,0.817-4.587
	c0.284-1.461,0.575-2.798,0.872-4.012C3.344,7.398,3.615,6.407,3.863,5.64C4.11,4.848,4.347,4.216,4.569,3.745
	c0.223-0.47,0.477-0.835,0.762-1.096c0.284-0.26,0.625-0.433,1.021-0.52C6.748,2.043,7.256,2,7.875,2c0.94,0,1.678,0.031,2.21,0.093
	s0.929,0.21,1.188,0.445c0.261,0.235,0.415,0.576,0.465,1.021c0.049,0.446,0.074,1.053,0.074,1.82c0,0.421-0.019,0.904-0.056,1.448
	c-0.037,0.545-0.093,1.127-0.167,1.746s-0.155,1.257-0.242,1.913s-0.18,1.294-0.278,1.913c-0.223,1.461-0.458,2.972-0.705,4.531
	l0.408,0.446c0.049-0.075,0.315-0.545,0.799-1.412c0.482-0.866,1.077-1.906,1.782-3.12c0.706-1.213,1.468-2.482,2.285-3.808
	c0.816-1.324,1.597-2.494,2.34-3.51c0.718-1.015,1.479-1.857,2.284-2.525C21.067,2.334,22.027,2,23.142,2
	c1.04,0,1.932,0.303,2.675,0.91c0.742,0.606,1.114,1.467,1.114,2.581c0,0.966-0.062,1.882-0.187,2.749s-0.278,1.708-0.464,2.525
	s-0.378,1.616-0.576,2.396c-0.198,0.78-0.384,1.579-0.557,2.396c-0.124,0.569-0.198,0.929-0.223,1.077
	c-0.025,0.148-0.037,0.248-0.037,0.297l0.408,0.446c0.05-0.075,0.334-0.539,0.854-1.394c0.52-0.854,1.157-1.888,1.913-3.102
	c0.755-1.213,1.56-2.488,2.414-3.826c0.854-1.337,1.653-2.513,2.396-3.528c0.719-0.99,1.437-1.826,2.154-2.507
	C35.746,2.341,36.625,2,37.665,2c1.164,0,2.148,0.303,2.953,0.91c0.805,0.606,1.207,1.467,1.207,2.581
	c0,1.709-0.087,3.331-0.26,4.866c-0.174,1.535-0.372,3.046-0.595,4.531c-0.223,1.486-0.421,2.99-0.594,4.514
	c-0.174,1.522-0.261,3.139-0.261,4.847c0,1.338,0.173,2.428,0.521,3.269c0.347,0.843,0.768,1.264,1.263,1.264
	c0.521,0,1.064-0.111,1.635-0.335c0.569-0.223,1.151-0.507,1.745-0.854c0.595-0.346,1.176-0.748,1.746-1.207
	c0.569-0.458,1.114-0.935,1.635-1.43c1.213-1.139,2.414-2.427,3.603-3.863l0.632,8.767c-1.09,0.867-2.173,1.764-3.25,2.692
	s-2.217,1.771-3.418,2.526c-1.201,0.756-2.52,1.374-3.956,1.857c-1.436,0.482-3.059,0.724-4.865,0.724
	c-0.892,0-1.641-0.291-2.247-0.873c-0.607-0.581-1.096-1.393-1.468-2.433c-0.371-1.04-0.638-2.266-0.799-3.678
	c-0.161-1.411-0.241-2.946-0.241-4.605c0-1.561,0.056-3.213,0.167-4.959s0.266-3.51,0.465-5.293h-0.558l-7.54,19.204
	c-0.645,1.04-1.362,1.739-2.154,2.099c-0.793,0.359-1.709,0.538-2.749,0.538c-0.793,0-1.424-0.216-1.895-0.649
	s-0.836-0.99-1.096-1.672c-0.26-0.681-0.434-1.43-0.52-2.247C16.685,32.272,16.642,31.48,16.642,30.713z"/>
<path fill="#FFFFFF" stroke="#000000" stroke-width="4" stroke-linecap="round" stroke-miterlimit="10" stroke-dasharray="0,4.0887,0,4.0887" d="
	M72.729,9.837c0.718,1.437,1.256,2.953,1.615,4.551c0.359,1.597,0.539,3.126,0.539,4.587c0,1.462-0.161,2.935-0.483,4.42
	c-0.321,1.486-0.786,2.923-1.393,4.31c-0.607,1.387-1.35,2.687-2.229,3.899c-0.88,1.214-1.883,2.267-3.009,3.157
	c-1.127,0.892-2.358,1.598-3.696,2.117c-1.337,0.521-2.761,0.78-4.271,0.78c-2.179,0-4.043-0.477-5.59-1.43
	c-1.548-0.953-2.817-2.197-3.808-3.733c-0.99-1.535-1.715-3.269-2.173-5.2c-0.459-1.932-0.688-3.888-0.688-5.869
	c0-2.724,0.409-5.268,1.226-7.633c0.817-2.364,1.987-4.42,3.511-6.166c1.522-1.746,3.386-3.12,5.59-4.123S62.552,2,65.301,2
	c2.352,0,4.556,0.365,6.611,1.096c2.055,0.73,3.98,1.708,5.776,2.935c1.795,1.226,3.466,2.631,5.014,4.216s2.99,3.219,4.328,4.902
	l-0.706,5.237c-0.669-0.891-1.573-1.856-2.712-2.896s-2.347-2.056-3.621-3.046c-1.276-0.99-2.532-1.926-3.771-2.805
	s-2.303-1.616-3.194-2.21L72.729,9.837z M61.252,30.526c0.841,0,1.658-0.427,2.451-1.281c0.792-0.854,1.485-1.932,2.08-3.231
	s1.071-2.736,1.43-4.309c0.359-1.572,0.539-3.077,0.539-4.514c0-1.139-0.087-2.197-0.26-3.176c-0.174-0.978-0.434-1.825-0.78-2.544
	c-0.347-0.718-0.793-1.287-1.337-1.709c-0.545-0.421-1.202-0.631-1.969-0.631c-1.016,0-1.981,0.434-2.897,1.3
	c-0.917,0.867-1.722,1.975-2.414,3.324c-0.694,1.35-1.239,2.842-1.635,4.476c-0.396,1.635-0.595,3.208-0.595,4.718
	c0,1.04,0.099,2.019,0.298,2.935c0.197,0.916,0.507,1.715,0.929,2.396c0.42,0.682,0.978,1.226,1.671,1.635
	C59.456,30.322,60.286,30.526,61.252,30.526z"/>
<path d="M97.803,30.713c0-0.322,0.024-0.78,0.074-1.375c0.049-0.594,0.123-1.275,0.223-2.043c0.099-0.767,0.21-1.578,0.334-2.433
	s0.247-1.702,0.372-2.545c0.271-1.98,0.606-4.11,1.003-6.389h-0.558c-0.297,0.372-0.638,0.929-1.021,1.672s-0.923,1.833-1.616,3.269
	c-0.693,1.437-1.578,3.3-2.655,5.59c-1.077,2.291-2.471,5.157-4.179,8.6c-0.496,1.016-1.071,1.702-1.728,2.062
	s-1.381,0.538-2.173,0.538c-1.016,0-1.833-0.216-2.451-0.649c-0.619-0.434-1.096-1.016-1.431-1.746
	c-0.334-0.73-0.557-1.561-0.668-2.488c-0.111-0.929-0.168-1.889-0.168-2.879c0-1.016,0.062-2.216,0.187-3.604
	c0.123-1.387,0.284-2.847,0.482-4.383c0.198-1.535,0.428-3.102,0.688-4.699c0.26-1.597,0.532-3.126,0.817-4.587
	c0.284-1.461,0.575-2.798,0.872-4.012c0.298-1.213,0.569-2.204,0.817-2.972c0.247-0.792,0.483-1.424,0.706-1.895
	c0.223-0.47,0.477-0.835,0.762-1.096c0.284-0.26,0.625-0.433,1.021-0.52C87.909,2.043,88.417,2,89.036,2
	c0.94,0,1.678,0.031,2.21,0.093s0.929,0.21,1.188,0.445c0.261,0.235,0.415,0.576,0.465,1.021c0.049,0.446,0.074,1.053,0.074,1.82
	c0,0.421-0.019,0.904-0.056,1.448c-0.037,0.545-0.093,1.127-0.167,1.746s-0.155,1.257-0.242,1.913s-0.18,1.294-0.278,1.913
	c-0.223,1.461-0.458,2.972-0.705,4.531l0.408,0.446c0.049-0.075,0.315-0.545,0.799-1.412c0.482-0.866,1.077-1.906,1.782-3.12
	c0.706-1.213,1.468-2.482,2.285-3.808c0.816-1.324,1.597-2.494,2.34-3.51c0.718-1.015,1.479-1.857,2.284-2.525
	C102.229,2.334,103.188,2,104.303,2c1.04,0,1.932,0.303,2.675,0.91c0.742,0.606,1.114,1.467,1.114,2.581
	c0,0.966-0.062,1.882-0.187,2.749s-0.278,1.708-0.464,2.525s-0.378,1.616-0.576,2.396c-0.198,0.78-0.384,1.579-0.557,2.396
	c-0.124,0.569-0.198,0.929-0.223,1.077c-0.025,0.148-0.037,0.248-0.037,0.297l0.408,0.446c0.05-0.075,0.334-0.539,0.854-1.394
	c0.52-0.854,1.157-1.888,1.913-3.102c0.755-1.213,1.56-2.488,2.414-3.826c0.854-1.337,1.653-2.513,2.396-3.528
	c0.719-0.99,1.437-1.826,2.154-2.507C116.907,2.341,117.786,2,118.826,2c1.164,0,2.148,0.303,2.953,0.91
	c0.805,0.606,1.207,1.467,1.207,2.581c0,1.709-0.087,3.331-0.26,4.866c-0.174,1.535-0.372,3.046-0.595,4.531
	c-0.223,1.486-0.421,2.99-0.594,4.514c-0.174,1.522-0.261,3.139-0.261,4.847c0,1.338,0.173,2.428,0.521,3.269
	c0.347,0.843,0.768,1.264,1.263,1.264c0.521,0,1.064-0.111,1.635-0.335c0.569-0.223,1.151-0.507,1.745-0.854
	c0.595-0.346,1.176-0.748,1.746-1.207c0.569-0.458,1.114-0.935,1.635-1.43c1.213-1.139,2.414-2.427,3.603-3.863l0.632,8.767
	c-1.09,0.867-2.173,1.764-3.25,2.692s-2.217,1.771-3.418,2.526c-1.201,0.756-2.52,1.374-3.956,1.857
	c-1.436,0.482-3.059,0.724-4.865,0.724c-0.892,0-1.641-0.291-2.247-0.873c-0.607-0.581-1.096-1.393-1.468-2.433
	c-0.371-1.04-0.638-2.266-0.799-3.678c-0.161-1.411-0.241-2.946-0.241-4.605c0-1.561,0.056-3.213,0.167-4.959
	s0.266-3.51,0.465-5.293h-0.558l-7.54,19.204c-0.645,1.04-1.362,1.739-2.154,2.099c-0.793,0.359-1.709,0.538-2.749,0.538
	c-0.793,0-1.424-0.216-1.895-0.649s-0.836-0.99-1.096-1.672c-0.26-0.681-0.434-1.43-0.52-2.247
	C97.846,32.272,97.803,31.48,97.803,30.713z"/>
<path d="M146.536,30.713c0-0.322,0.024-0.78,0.074-1.375c0.049-0.594,0.123-1.275,0.223-2.043c0.099-0.767,0.21-1.578,0.334-2.433
	s0.247-1.702,0.372-2.545c0.271-1.98,0.606-4.11,1.003-6.389h-0.558c-0.297,0.372-0.638,0.929-1.021,1.672s-0.923,1.833-1.616,3.269
	c-0.693,1.437-1.578,3.3-2.655,5.59c-1.077,2.291-2.471,5.157-4.179,8.6c-0.496,1.016-1.071,1.702-1.728,2.062
	s-1.381,0.538-2.173,0.538c-1.016,0-1.833-0.216-2.451-0.649c-0.619-0.434-1.096-1.016-1.431-1.746
	c-0.334-0.73-0.557-1.561-0.668-2.488c-0.111-0.929-0.168-1.889-0.168-2.879c0-1.016,0.062-2.216,0.187-3.604
	c0.123-1.387,0.284-2.847,0.482-4.383c0.198-1.535,0.428-3.102,0.688-4.699c0.26-1.597,0.532-3.126,0.817-4.587
	c0.284-1.461,0.575-2.798,0.872-4.012c0.298-1.213,0.569-2.204,0.817-2.972c0.247-0.792,0.483-1.424,0.706-1.895
	c0.223-0.47,0.477-0.835,0.762-1.096c0.284-0.26,0.625-0.433,1.021-0.52C136.643,2.043,137.15,2,137.77,2
	c0.94,0,1.678,0.031,2.21,0.093s0.929,0.21,1.188,0.445c0.261,0.235,0.415,0.576,0.465,1.021c0.049,0.446,0.074,1.053,0.074,1.82
	c0,0.421-0.019,0.904-0.056,1.448c-0.037,0.545-0.093,1.127-0.167,1.746s-0.155,1.257-0.242,1.913s-0.18,1.294-0.278,1.913
	c-0.223,1.461-0.458,2.972-0.705,4.531l0.408,0.446c0.049-0.075,0.315-0.545,0.799-1.412c0.482-0.866,1.077-1.906,1.782-3.12
	c0.706-1.213,1.468-2.482,2.285-3.808c0.816-1.324,1.597-2.494,2.34-3.51c0.718-1.015,1.479-1.857,2.284-2.525
	C150.962,2.334,151.922,2,153.036,2c1.04,0,1.932,0.303,2.675,0.91c0.742,0.606,1.114,1.467,1.114,2.581
	c0,0.966-0.062,1.882-0.187,2.749s-0.278,1.708-0.464,2.525s-0.378,1.616-0.576,2.396c-0.198,0.78-0.384,1.579-0.557,2.396
	c-0.124,0.569-0.198,0.929-0.223,1.077c-0.025,0.148-0.037,0.248-0.037,0.297l0.408,0.446c0.05-0.075,0.334-0.539,0.854-1.394
	c0.52-0.854,1.157-1.888,1.913-3.102c0.755-1.213,1.56-2.488,2.414-3.826c0.854-1.337,1.653-2.513,2.396-3.528
	c0.719-0.99,1.437-1.826,2.154-2.507C165.641,2.341,166.52,2,167.56,2c1.164,0,2.148,0.303,2.953,0.91
	c0.805,0.606,1.207,1.467,1.207,2.581c0,1.709-0.087,3.331-0.26,4.866c-0.174,1.535-0.372,3.046-0.595,4.531
	c-0.223,1.486-0.421,2.99-0.594,4.514c-0.174,1.522-0.261,3.139-0.261,4.847c0,1.338,0.173,2.428,0.521,3.269
	c0.347,0.843,0.768,1.264,1.263,1.264c0.521,0,1.064-0.111,1.635-0.335c0.569-0.223,1.151-0.507,1.745-0.854
	c0.595-0.346,1.176-0.748,1.746-1.207c0.569-0.458,1.114-0.935,1.635-1.43c1.213-1.139,2.414-2.427,3.603-3.863l0.632,8.767
	c-1.09,0.867-2.173,1.764-3.25,2.692s-2.217,1.771-3.418,2.526c-1.201,0.756-2.52,1.374-3.956,1.857
	c-1.436,0.482-3.059,0.724-4.865,0.724c-0.892,0-1.641-0.291-2.247-0.873c-0.607-0.581-1.096-1.393-1.468-2.433
	c-0.371-1.04-0.638-2.266-0.799-3.678c-0.161-1.411-0.241-2.946-0.241-4.605c0-1.561,0.056-3.213,0.167-4.959
	s0.266-3.51,0.465-5.293h-0.558l-7.54,19.204c-0.645,1.04-1.362,1.739-2.154,2.099c-0.793,0.359-1.709,0.538-2.749,0.538
	c-0.793,0-1.424-0.216-1.895-0.649s-0.836-0.99-1.096-1.672c-0.26-0.681-0.434-1.43-0.52-2.247
	C146.579,32.272,146.536,31.48,146.536,30.713z"/>
<path d="M198.835,9.132c0.198-0.842,0.551-1.591,1.059-2.248c0.508-0.655,1.09-1.207,1.746-1.652
	c0.655-0.446,1.343-0.78,2.062-1.003c0.718-0.223,1.398-0.335,2.043-0.335c0.767,0,1.411,0.168,1.932,0.502
	c0.52,0.334,0.779,0.86,0.779,1.579c0,0.223-0.037,0.482-0.111,0.779c-0.148,0.645-0.334,1.523-0.557,2.638
	s-0.465,2.377-0.725,3.788c-0.26,1.412-0.526,2.904-0.799,4.477s-0.532,3.139-0.779,4.698c-0.62,3.665-1.251,7.603-1.895,11.812
	c0.742-0.421,1.547-0.941,2.414-1.561c0.866-0.618,1.832-1.448,2.897-2.488c1.064-1.04,2.253-2.346,3.565-3.919
	c1.312-1.572,2.786-3.534,4.421-5.888l1.782,8.246c-0.445,0.769-1.021,1.555-1.727,2.359c-0.706,0.805-1.486,1.609-2.341,2.414
	c-0.854,0.805-1.745,1.585-2.674,2.34c-0.929,0.756-1.839,1.468-2.73,2.136c-2.104,1.585-4.371,3.12-6.797,4.606
	c-0.471,2.649-1.028,5.23-1.672,7.744c-0.645,2.514-1.406,4.866-2.284,7.058c-0.88,2.191-1.883,4.203-3.009,6.036
	c-1.127,1.832-2.402,3.404-3.826,4.718c-1.424,1.312-3.015,2.333-4.773,3.064c-1.758,0.729-3.702,1.096-5.831,1.096
	c-0.843,0-1.752-0.087-2.73-0.261c-0.979-0.173-1.882-0.52-2.712-1.04c-0.829-0.52-1.516-1.263-2.062-2.229
	c-0.544-0.966-0.816-2.253-0.816-3.862c0-1.115,0.285-2.372,0.854-3.771c0.569-1.399,1.35-2.873,2.34-4.42
	c0.99-1.548,2.166-3.157,3.528-4.829c1.361-1.672,2.842-3.337,4.439-4.996c1.597-1.659,3.269-3.294,5.014-4.903
	c1.746-1.609,3.511-3.145,5.294-4.605l1.003-3.455c-1.338,1.189-2.73,2.149-4.18,2.879c-1.448,0.73-2.854,1.096-4.216,1.096
	c-1.188,0-2.346-0.241-3.473-0.724c-1.127-0.483-2.124-1.176-2.99-2.08c-0.867-0.904-1.56-2.006-2.08-3.307
	c-0.52-1.3-0.78-2.767-0.78-4.401c0-2.154,0.105-4.135,0.316-5.943c0.21-1.807,0.514-3.528,0.909-5.163
	c0.396-1.634,0.892-3.213,1.486-4.735c0.595-1.523,1.275-3.064,2.043-4.625c0.569-1.114,1.387-1.962,2.451-2.544
	s2.104-0.873,3.12-0.873c0.867,0,1.609,0.217,2.229,0.65s0.929,1.108,0.929,2.024c0,0.272-0.031,0.569-0.093,0.891
	c-0.062,0.322-0.167,0.669-0.315,1.04c-0.445,1.14-0.886,2.483-1.318,4.03c-0.434,1.548-0.817,3.133-1.151,4.755
	c-0.335,1.622-0.602,3.213-0.799,4.773c-0.198,1.56-0.297,2.934-0.297,4.123c0,0.619,0.043,1.22,0.13,1.801
	c0.086,0.582,0.241,1.103,0.464,1.561s0.521,0.83,0.892,1.114c0.371,0.285,0.842,0.427,1.411,0.427c0.916,0,1.746-0.396,2.489-1.188
	c0.742-0.792,1.387-1.746,1.932-2.86c0.544-1.114,0.984-2.266,1.318-3.454s0.551-2.179,0.65-2.972L198.835,9.132z M181.451,64.997
	c1.04,0,2.024-0.304,2.953-0.91c0.929-0.607,1.783-1.406,2.563-2.396c0.779-0.991,1.491-2.117,2.136-3.381
	c0.644-1.263,1.213-2.557,1.708-3.881c0.495-1.325,0.916-2.619,1.264-3.882c0.346-1.263,0.618-2.391,0.816-3.381
	c-0.966,0.645-1.95,1.412-2.953,2.304s-1.981,1.851-2.934,2.879c-0.954,1.026-1.857,2.085-2.712,3.176
	c-0.854,1.089-1.604,2.136-2.247,3.139c-0.645,1.003-1.151,1.937-1.523,2.804c-0.371,0.867-0.557,1.585-0.557,2.154
	C179.966,64.538,180.461,64.997,181.451,64.997z"/>
</svg>
